<?xml version="1.0" standalone="no"?><svg xmlns="http://www.w3.org/2000/svg" viewBox="0 0 1440 320"><path fill="#00A2E8 " fill-opacity="1" d="M0,192L24,170.7C48,149,96,107,144,85.3C192,64,240,64,288,90.7C336,117,384,171,432,170.7C480,171,528,117,576,122.7C624,128,672,192,720,229.3C768,267,816,277,864,261.3C912,245,960,203,1008,170.7C1056,139,1104,117,1152,138.7C1200,160,1248,224,1296,234.7C1344,245,1392,203,1416,181.3L1440,160L1440,0L1416,0C1392,0,1344,0,1296,0C1248,0,1200,0,1152,0C1104,0,1056,0,1008,0C960,0,912,0,864,0C816,0,768,0,720,0C672,0,624,0,576,0C528,0,480,0,432,0C384,0,336,0,288,0C240,0,192,0,144,0C96,0,48,0,24,0L0,0Z"></path></svg>